# xmcd
#
# Track frame offsets:
#	150
#	23846
#	42789
#	67192
#	85698
#	100064
#	121874
#	140731
#	163143
#	183132
#
# Disc length: 2838 seconds
#
# Revision: 1
# Processed by: cddbd v1.5.1PL2 Copyright (c) Steve Scherf et al.
# Submitted via: audiograbber 1.83.01
#
DISCID=7f0b140a
DTITLE=Robb McMahan - Mojo Man
DYEAR=2001
DGENRE=Blues
TTITLE0=No Bull
TTITLE1=My Way Down
TTITLE2=New Understanding
TTITLE3=Gator Bait
TTITLE4=Trouble
TTITLE5=Mojo Man
TTITLE6=Union Man
TTITLE7=Living In A Dream
TTITLE8=Couldn't Stand The Weather
TTITLE9=Little Wing
EXTD=
EXTT0=
EXTT1=
EXTT2=
EXTT3=
EXTT4=
EXTT5=
EXTT6=
EXTT7=
EXTT8=
EXTT9=
PLAYORDER=
